<svg width="151" height="166" viewBox="0 0 151 166" fill="none" xmlns="http://www.w3.org/2000/svg">
<path d="M37.9169 156.095C25.6425 149.485 16.2528 139.954 9.7479 127.502C3.24299 115.051 -0.0063032 100.295 9.17942e-06 83.2351C9.17942e-06 66.1688 3.25168 51.3736 9.75501 38.8496C16.2583 26.3256 25.6085 16.7184 37.8056 10.0281C49.9948 3.3427 64.3744 0 80.9444 0C94.6896 0 107.402 2.46148 119.081 7.38445C130.761 12.3074 139.409 18.8402 145.025 26.9828C146.798 29.4443 147.684 31.9804 147.684 34.5912C147.684 38.4361 145.688 41.8945 141.697 44.9664C139.923 46.3497 137.707 47.0422 135.048 47.0439C132.754 47.0274 130.488 46.5161 128.394 45.5424C126.243 44.5974 124.34 43.1325 122.843 41.2692C117.817 35.2763 111.978 30.9343 105.326 28.2431C98.6743 25.5518 90.5471 24.2071 80.9444 24.2087C64.8289 24.2087 52.2641 29.3967 43.2501 39.7727C34.236 50.1486 29.7234 64.6361 29.7124 83.2351C29.7124 101.678 34.2573 116.05 43.3471 126.35C52.4369 136.651 65.113 141.8 81.3753 141.799C99.9968 141.799 114.853 136.112 125.944 124.738C130.52 120.281 134.733 118.052 138.582 118.05C141.243 118.05 143.682 118.973 145.899 120.817C149.298 123.894 150.998 127.276 151 130.963C151 133.728 150.039 136.418 148.117 139.032C141.759 147.486 132.704 154.096 120.954 158.862C109.203 163.627 96.0105 166.007 81.3753 166C64.6759 166.005 50.1897 162.703 37.9169 156.095Z" fill="white"/>
<path d="M80.0215 73.7676V87.3599C80.5375 87.4854 81.0299 87.606 81.5625 87.7365C83.6645 88.214 85.5559 88.7211 87.2815 89.2306V75.6654C86.0601 75.3257 84.8079 74.9909 83.4941 74.666C82.2632 74.3706 81.1198 74.0703 80.0215 73.7676Z" fill="white"/>
<path d="M57.9828 78.0213C61.0791 80.5583 65.3541 82.7843 70.808 84.6993V70.4227C70.2406 70.1371 69.6876 69.8216 69.151 69.4775C66.3909 67.6544 65.0125 65.3275 65.0156 62.4968C65.0188 59.666 66.4327 57.4507 69.2575 55.8507C69.7574 55.5729 70.2728 55.3263 70.8009 55.1123V42.7803C68.9277 43.1597 67.0836 43.6805 65.2831 44.3384C60.6624 46.091 57.0628 48.5525 54.4842 51.7228C51.9056 54.8932 50.6171 58.487 50.6187 62.5041C50.6202 68.8269 53.075 73.9993 57.9828 78.0213Z" fill="white"/>
<path d="M96.498 57.9074C98.1074 58.9825 99.5538 60.3007 100.79 61.8187C101.443 62.6747 102.278 63.362 103.229 63.827C104.18 64.292 105.221 64.5221 106.272 64.4993C107.42 64.5201 108.546 64.1692 109.494 63.495C111.212 62.1543 112.107 60.5527 112.178 58.6902C112.178 57.5743 111.712 56.2344 110.781 54.6706C108.059 50.5681 104.102 47.3838 98.9102 45.1175C98.1267 44.7754 97.3194 44.4653 96.5004 44.1748L96.498 57.9074Z" fill="white"/>
<path d="M80.0215 53.4645C80.3884 53.4645 80.7506 53.4424 81.1317 53.4424C83.1979 53.4394 85.2593 53.648 87.2862 54.0651V42.0728C85.2429 41.8323 83.1881 41.7115 81.1317 41.7109C80.7506 41.7109 80.3955 41.7454 80.0215 41.7528V53.4645Z" fill="white"/>
<path d="M70.8035 107.667C66.3075 105.925 62.4088 103.489 59.1074 100.359C57.0953 98.6478 55.3792 97.792 53.9589 97.792C52.5986 97.792 51.3448 98.3877 50.1975 99.579C48.7598 101.069 48.041 102.633 48.041 104.271C48.041 105.687 48.5776 106.953 49.6507 108.069C54.2369 112.661 59.6876 116.217 65.6597 118.513C67.344 119.172 69.0602 119.741 70.8011 120.216L70.8035 107.667Z" fill="white"/>
<path d="M111.693 89.3004C109.581 86.1005 106.233 83.3264 101.649 80.9781C100.103 80.188 98.3776 79.4274 96.498 78.6914V93.2954C99.135 95.2375 100.468 97.7261 100.468 100.808C100.468 103.89 99.1421 106.223 96.498 107.897V120.871C97.9904 120.519 99.4595 120.068 100.896 119.52C105.337 117.769 108.775 115.274 111.21 112.035C113.645 108.795 114.862 105.053 114.862 100.808C114.862 96.3394 113.806 92.5036 111.693 89.3004Z" fill="white"/>
<path d="M87.2815 110.327C86.6684 110.359 86.0814 110.416 85.428 110.416C83.6194 110.404 81.8134 110.27 80.0215 110.015V121.896C81.7953 122.06 83.5975 122.142 85.428 122.142C86.0648 122.142 86.6613 122.091 87.2815 122.071V110.327Z" fill="white"/>
</svg>
