<svg width="1920" height="1080" viewBox="0 0 1920 1080" fill="none" xmlns="http://www.w3.org/2000/svg">
<path d="M490 658.58C485.847 654.9 483.773 649.83 483.78 643.37V522.37C483.78 488.95 493.343 462.79 512.47 443.89C531.597 424.99 558.22 415.54 592.34 415.54C614.693 415.54 634.05 419.803 650.41 428.33C666.423 436.513 679.525 449.433 687.93 465.33C696.597 481.47 700.93 500.487 700.93 522.38V643.38C700.93 649.84 698.857 654.91 694.71 658.59C690.563 662.27 684.993 664.113 678 664.12C671.087 664.12 665.5 662.217 661.24 658.41C656.98 654.603 654.847 649.603 654.84 643.41V587H529.73V643.35C529.73 649.583 527.597 654.583 523.33 658.35C519.063 662.117 513.473 664.02 506.56 664.06C499.647 664.1 494.127 662.273 490 658.58ZM654.88 551.41V521.33C654.88 498.29 649.637 480.957 639.15 469.33C628.663 457.703 613.05 451.883 592.31 451.87C550.59 451.87 529.73 475.033 529.73 521.36V551.44L654.88 551.41Z" fill="#E4EDF2"/>
<path d="M1001.71 658.93C997.557 655.25 995.483 650.18 995.49 643.72V436.28C995.49 429.833 997.563 424.763 1001.71 421.07C1005.86 417.377 1011.39 415.533 1018.3 415.54C1025.22 415.54 1030.81 417.44 1035.07 421.24C1039.33 425.04 1041.46 430.04 1041.47 436.24V518.87H1165.59V436.28C1165.59 430.06 1167.72 425.06 1171.98 421.28C1176.24 417.5 1181.83 415.6 1188.75 415.58C1195.66 415.58 1201.19 417.423 1205.34 421.11C1209.49 424.797 1211.56 429.867 1211.57 436.32V643.72C1211.57 650.167 1209.49 655.237 1205.34 658.93C1201.19 662.623 1195.66 664.467 1188.75 664.46C1181.83 664.46 1176.24 662.56 1171.98 658.76C1167.72 654.96 1165.59 649.96 1165.59 643.76V554.56H1041.47V643.76C1041.47 649.98 1039.34 654.98 1035.07 658.76C1030.8 662.54 1025.21 664.44 1018.3 664.46C1011.39 664.46 1005.86 662.617 1001.71 658.93Z" fill="#E4EDF2"/>
<path d="M1489 470.16C1489 454.027 1493.67 441.467 1503 432.48C1512.33 423.494 1525.3 418.997 1541.9 418.99H1603.44C1637.78 418.99 1663.71 425.677 1681.23 439.05C1698.75 452.424 1707.51 472.36 1707.5 498.86C1707.5 523.527 1700.17 542.774 1685.5 556.6C1670.83 570.427 1651.19 577.34 1626.56 577.34L1679.11 629.54C1683.26 633.694 1685.33 638.42 1685.34 643.72C1685.34 649.247 1682.92 654.087 1678.07 658.24C1673 662.16 1668.04 664.12 1663.2 664.12C1656.53 664.12 1650.43 661.12 1644.88 655.12L1570.2 578.71H1535V643.71C1535 650.157 1532.81 655.227 1528.43 658.92C1524.05 662.614 1518.52 664.457 1511.84 664.45C1504.92 664.45 1499.39 662.607 1495.24 658.92C1491.09 655.234 1489.01 650.167 1489 643.72V470.16ZM1602 543.11C1617.22 543.11 1629.09 541.614 1637.61 538.62C1646.13 535.627 1652.18 530.96 1655.76 524.62C1659.33 518.28 1661.12 509.694 1661.12 498.86C1661.12 483.194 1656.34 471.9 1646.77 464.98C1637.2 458.06 1622.28 454.604 1602 454.61H1549.8C1545.19 454.61 1541.55 456.11 1538.91 459.1C1536.27 462.09 1534.91 466.25 1534.91 471.55V543.11H1602Z" fill="#E4EDF2"/>
<path d="M213.2 524.89C212.76 529.89 212.49 535.04 212.49 540.35C212.49 543.03 212.58 545.65 212.69 548.26H259.08C258.94 545.67 258.82 543.06 258.82 540.35C258.833 535.184 259.123 530.024 259.69 524.89H213.2Z" fill="#E4EDF2"/>
<path d="M267.08 495.23C270.237 487.893 274.57 481.12 279.91 475.18C293.957 459.62 313.547 451.84 338.68 451.84C353.66 451.84 366.327 453.857 376.68 457.89C387.247 462.067 396.628 468.773 404 477.42C406.332 480.208 409.293 482.402 412.64 483.82C415.901 485.276 419.429 486.042 423 486.07C426.714 486.222 430.373 485.143 433.41 483C439.63 478.393 442.74 473.206 442.74 467.44C442.663 463.274 441.207 459.25 438.6 456C429.827 443.786 416.343 433.99 398.15 426.61C379.957 419.23 360.133 415.543 338.68 415.55C312.86 415.55 290.443 420.55 271.43 430.55C252.81 440.187 237.559 455.256 227.7 473.76C224.037 480.596 221.059 487.778 218.81 495.2L267.08 495.23Z" fill="#E4EDF2"/>
<path d="M440 596.7C436.799 594.024 432.762 592.556 428.59 592.55C422.59 592.55 416.02 595.883 408.88 602.55C391.6 619.61 368.437 628.136 339.39 628.13C314.057 628.13 294.293 620.41 280.1 604.97C273.022 597.148 267.675 587.92 264.41 577.89H216.76C219.146 587.925 222.824 597.609 227.7 606.7C237.609 625.143 252.935 640.105 271.61 649.57C290.737 659.476 313.323 664.43 339.37 664.43C362.19 664.43 382.76 660.86 401.08 653.72C419.4 646.58 433.52 636.673 443.44 624C446.251 620.584 447.832 616.322 447.93 611.9C447.93 606.38 445.287 601.313 440 596.7Z" fill="#E4EDF2"/>
<path d="M1372.5 454.61H1423.36C1430.03 454.61 1435.27 453.053 1439.09 449.94C1442.91 446.827 1444.81 442.493 1444.79 436.94C1444.79 431.193 1442.95 426.757 1439.26 423.63C1435.57 420.503 1430.27 418.947 1423.36 418.96H1372.5V454.61Z" fill="#E4EDF2"/>
<path d="M1372.5 519.6V555.21H1397.08C1403.75 555.21 1408.99 553.653 1412.81 550.54C1416.63 547.426 1418.53 543.093 1418.52 537.54C1418.52 531.78 1416.68 527.343 1412.99 524.23C1409.3 521.116 1404 519.56 1397.08 519.56L1372.5 519.6Z" fill="#E4EDF2"/>
<path d="M1342.84 625.4H1323.84C1319.23 625.4 1315.6 623.9 1312.95 620.9C1310.3 617.9 1308.96 613.75 1308.95 608.45V555.21H1342.87V519.6H1308.95V471.55C1308.95 466.25 1310.28 462.1 1312.95 459.1C1315.62 456.1 1319.25 454.603 1323.84 454.61H1342.84V419H1315.84C1299.24 419 1286.27 423.497 1276.94 432.49C1267.61 441.483 1262.94 454.043 1262.94 470.17V608.45C1262.94 625.05 1267.78 637.96 1277.46 647.18C1287.14 656.4 1300.74 661.01 1318.26 661.01H1342.84V625.4Z" fill="#E4EDF2"/>
<path d="M1446.87 630.06C1443.18 626.954 1437.88 625.4 1430.97 625.4H1372.5V661H1431C1437.67 661 1442.91 659.444 1446.73 656.33C1450.55 653.217 1452.45 648.884 1452.43 643.33C1452.41 637.597 1450.56 633.174 1446.87 630.06Z" fill="#E4EDF2"/>
<path d="M841.35 514.74V556.81C843.02 557.2 844.6 557.61 846.35 557.98C853.12 559.46 859.2 560.98 864.76 562.6V520.6C860.83 519.6 856.76 518.51 852.57 517.51C848.57 516.61 844.89 515.68 841.35 514.74Z" fill="#E4EDF2"/>
<path d="M770.42 527.9C780.38 535.747 794.137 542.637 811.69 548.57V504.38C809.871 503.494 808.099 502.516 806.38 501.45C797.5 495.81 793.063 488.607 793.07 479.84C793.077 471.073 797.627 464.217 806.72 459.27C808.343 458.421 810.012 457.664 811.72 457V418.83C805.691 420.009 799.756 421.624 793.96 423.66C779.093 429.08 767.51 436.687 759.21 446.48C751.131 455.709 746.706 467.575 746.77 479.84C746.75 499.44 754.633 515.46 770.42 527.9Z" fill="#E4EDF2"/>
<path d="M894.38 465.66C899.565 468.985 904.223 473.067 908.2 477.77C910.3 480.419 912.984 482.546 916.042 483.986C919.101 485.426 922.45 486.139 925.83 486.07C929.521 486.146 933.145 485.073 936.2 483C941.727 478.854 944.607 473.897 944.84 468.13C944.84 464.67 943.343 460.52 940.35 455.68C931.59 443.014 918.853 433.16 902.14 426.12C899.62 425.06 897.02 424.12 894.38 423.2V465.66Z" fill="#E4EDF2"/>
<path d="M841.35 451.91C842.54 451.91 843.7 451.84 844.93 451.84C851.574 451.832 858.203 452.478 864.72 453.77V416.66C858.15 415.914 851.543 415.54 844.93 415.54C843.7 415.54 842.56 415.65 841.35 415.67V451.91Z" fill="#E4EDF2"/>
<path d="M811.69 619.66C797.794 614.616 785.01 606.92 774.05 597C767.603 591.7 762.073 589.053 757.46 589.06C753.08 589.06 749.047 590.903 745.36 594.59C740.74 599.203 738.433 604.043 738.44 609.11C738.458 611.318 738.928 613.5 739.821 615.521C740.713 617.542 742.009 619.358 743.63 620.86C758.388 635.071 775.925 646.078 795.14 653.19C800.564 655.224 806.088 656.983 811.69 658.46V619.66Z" fill="#E4EDF2"/>
<path d="M943.29 562.82C936.49 552.94 925.727 544.354 911 537.06C906 534.61 900.47 532.26 894.42 529.98V575.18C902.91 581.18 907.2 588.92 907.2 598.43C907.2 607.94 902.93 615.18 894.42 620.37V660.531C899.224 659.436 903.954 658.036 908.58 656.341C922.873 650.921 933.937 643.197 941.77 633.17C949.56 623.283 953.712 611.017 953.53 598.43C953.503 584.604 950.09 572.734 943.29 562.82Z" fill="#E4EDF2"/>
<path d="M864.72 627.89C862.72 627.99 860.86 628.16 858.72 628.16C852.899 628.12 847.088 627.706 841.32 626.92V663.68C847.027 664.193 852.827 664.453 858.72 664.46C860.78 664.46 862.72 664.31 864.72 664.24V627.89Z" fill="#E4EDF2"/>
</svg>
